<?xml version="1.0" encoding="utf-8"?>
<!-- Generator: Adobe Illustrator 24.0.2, SVG Export Plug-In . SVG Version: 6.00 Build 0)  -->
<svg version="1.1" id="Layer_1" xmlns="http://www.w3.org/2000/svg" xmlns:xlink="http://www.w3.org/1999/xlink" x="0px" y="0px"
	 viewBox="0 0 320 136" style="enable-background:new 0 0 320 136;" xml:space="preserve">
<style type="text/css">
	.st0{fill:#231F20;}
	.st1{fill:#B4008D;}
	.st2{fill:#009845;}
	.st3{fill:#3A8DDE;}
	.st4{fill:#29007B;}
	.st5{fill:#00543C;}
	.st6{fill:#000021;}
	.st7{fill:#62CBC9;}
	.st8{fill:#45006F;}
	.st9{fill:#007936;}
	.st10{fill:#00001E;}
	.st11{fill:#100061;}
	.st12{fill:#00432F;}
	.st13{fill:#00001A;}
</style>
<g>
	<g>
		<g>
			<path class="st0" d="M151.63,21.57c-3.89-1.37-6.27-2.34-6.27-4.96c0-2.34,1.87-3.98,4.56-3.98c2.28,0,3.36,0.69,4.3,1.3
				c0.7,0.45,1.43,0.92,2.45,0.92c1.53,0,2.72-1.22,2.72-2.77c0-3.02-4.84-4.89-9.33-4.89c-6.59,0-11.02,5.02-11.02,9.71
				c0,6.7,5.39,8.56,9.72,10.05c4.07,1.4,6.57,2.41,6.57,5.37c0,3.59-2.53,6.1-6.15,6.1c-2.51,0-4.14-0.95-5.45-1.73
				c-0.85-0.49-1.58-0.93-2.35-0.93c-1.57,0-2.68,1.26-2.68,3.06c0,3.11,5.42,5.04,10.44,5.04c8.21,0,12.51-5.91,12.51-11.74
				C161.66,25.11,156.1,23.15,151.63,21.57z"/>
			<path class="st0" d="M196.03,10.39c-0.75-2.12-2.06-3.2-3.88-3.2s-3.13,1.07-3.87,3.18l-10.66,28.42l-0.09,0.26
				c-0.28,0.8-0.54,1.56-0.54,2.15c0,1.55,1.23,2.68,2.92,2.68c1.4,0,2.38-0.73,2.91-2.18l2.01-5.58h14.65l2.01,5.58
				c0.53,1.45,1.51,2.18,2.91,2.18c1.69,0,2.92-1.13,2.92-2.68c0-0.59-0.25-1.35-0.53-2.15L196.03,10.39z M186.76,30.66l5.39-15.13
				l5.38,15.13H186.76z"/>
			<path class="st0" d="M169.59,7.19c-1.8,0-3.01,1.27-3.01,3.16v30.36c0,1.89,1.21,3.16,3.01,3.16c1.8,0,3.01-1.27,3.01-3.16V10.35
				C172.6,8.46,171.39,7.19,169.59,7.19z"/>
		</g>
		<g>
			<path class="st0" d="M190.09,58.71c-7.93,0-13.91,6.19-13.91,14.39c0,8.48,5.76,14.18,14.34,14.18c7.24,0,11.69-3.78,11.69-6.49
				c0-2.48-2.59-3.26-3.33-3.26l-0.32,0.02l-0.17,0.17l-0.09,0.12c-1.6,2.75-4.04,4.04-7.66,4.04c-4.38,0-7.61-2.74-8.22-6.88h18.56
				c1.53,0,2.22-0.67,2.22-2.16V72.4C203.19,64.22,197.92,58.71,190.09,58.71z M182.52,70.19c0.84-3.76,3.79-6.23,7.52-6.23
				c3.73,0,6.25,2.37,6.72,6.23H182.52z"/>
			<path class="st0" d="M229.23,48.21c-0.65,0-2.54,0.29-2.54,1.19v12.53c-1.71-1.72-4.54-3.22-8.34-3.22
				c-7.61,0-12.94,5.87-12.94,14.29c0,8.41,5.25,14.29,12.77,14.29c3.49,0,6.36-1.3,8.56-3.85v0.23c0,2.05,1.03,3.14,2.97,3.14h0.54
				c1.94,0,2.97-1.09,2.97-3.14V53.4C233.23,48.89,230.72,48.21,229.23,48.21z M226.74,74.62c0,3.95-3.31,7.04-7.53,7.04
				c-4.37,0-7.42-3.56-7.42-8.66c0-5.27,2.95-8.67,7.53-8.67c3.51,0,6.07,1.69,7.42,4.88V74.62z"/>
			<path class="st0" d="M169.15,50.16h-1.35c-2.38,0-3.19,0.98-4.11,3.17l-7.8,17.46l-7.74-17.46c-0.85-1.98-1.56-3.18-4.17-3.18
				h-1.46c-2.26,0-3.79,1.48-3.79,3.68v29.83c0,2.59,1.5,3.14,2.76,3.14h0.86c1.9,0,2.86-1.06,2.86-3.14V60.91l6.51,14.72
				c0.65,1.4,1.26,2.73,4.11,2.73c2.73,0,3.48-1.24,4.11-2.74l6.61-14.88v22.92c0,2.59,1.53,3.14,2.81,3.14h0.76
				c1.33,0,2.92-0.55,2.92-3.14V53.84C173.04,51.64,171.47,50.16,169.15,50.16z"/>
			<path class="st0" d="M241.35,59.09h-0.54c-1.95,0-3.03,1.13-3.03,3.19v21.38c0,2.05,1.05,3.14,3.03,3.14h0.54
				c1.94,0,2.97-1.09,2.97-3.14V62.28C244.32,60.2,243.29,59.09,241.35,59.09z"/>
			<path class="st0" d="M307.93,48.21c-0.65,0-2.54,0.29-2.54,1.19v34.27c0,2.05,1.04,3.14,3.02,3.14h0.54
				c1.94,0,2.97-1.09,2.97-3.14V53.4C311.93,48.89,309.42,48.21,307.93,48.21z"/>
			<path class="st0" d="M243.61,47.78c-2.4,0-3.84,1.35-3.84,3.62c0,2.2,1.45,3.57,3.78,3.57c2.41,0,3.79-1.3,3.79-3.57
				C247.34,49.13,245.94,47.78,243.61,47.78z"/>
			<path class="st0" d="M261.6,64.39c3.64,0,5.96,1.5,7.34,4.8c0.22,0.36,0.63,0.34,0.81,0.36c1.21,0,3.48-0.9,3.48-3.05
				c0-2.63-3.55-7.79-11.74-7.79c-8.18,0-14.12,5.99-14.12,14.23c0,8.31,5.94,14.34,14.12,14.34c8.19,0,11.74-5.12,11.74-7.73
				c0-2.33-2.38-3.11-3.46-3.11c-0.15,0-0.61,0-0.87,0.44c-1.32,3.18-3.71,4.72-7.3,4.72c-4.61,0-7.97-3.64-7.97-8.67
				C253.63,67.99,256.98,64.39,261.6,64.39z"/>
			<path class="st0" d="M288.06,58.71c-7.66,0-11.74,3.96-11.74,6.82c0,1.21,0.59,2.14,1.7,2.7c0.97,0.49,1.96,0.51,2.08,0.51
				c0.39,0,0.56-0.18,0.64-0.34c0.94-1.88,2.9-4.11,6.94-4.11c3.81,0,5.83,1.89,5.85,5.48h-0.13c-12.49,0.23-18.07,3.13-18.07,9.42
				c0,4.86,3.72,8.01,9.47,8.01c3.56,0,6.73-1.3,8.91-3.61c0.51,2.67,2.26,3.28,3.75,3.28c0.71,0,2.54-0.21,2.54-1.18V69.7
				C300.02,62.72,295.66,58.71,288.06,58.71z M293.53,75.7c0,3.8-3.05,6.45-7.42,6.45c-2.71,0-4.33-1.19-4.33-3.2
				c0-2.96,3.26-4.34,10.91-4.61l0.85-0.03V75.7z"/>
		</g>
		<g>
			<path class="st0" d="M245.07,121.38l-0.36,0.02l-0.18,0.24c-0.8,1.06-1.88,1.6-3.21,1.6c-1.78,0-2.87-0.7-2.87-4.22v-12.57h5.31
				c1.94,0,2.92-0.89,2.92-2.64v-0.38c0-1.71-0.94-2.54-2.86-2.54h-5.31v-3.42c0-2.11-0.95-3.13-2.92-3.13h-0.54
				c-1.92,0-2.97,1.11-2.97,3.13v3.42h-1.3c-2.41,0-2.92,1.41-2.92,2.59v0.38c0,1.18,0.51,2.59,2.92,2.59h1.3v13.16
				c0,6.1,2.82,9.2,8.38,9.2c4.32,0,6.65-2.34,6.65-4.54C247.11,122.48,245.79,121.38,245.07,121.38z"/>
			<path class="st0" d="M261.62,100.23c-2.8,0-4.9,1.15-6.27,3.41c-0.67-2.59-2.51-3.03-3.69-3.03c-0.89,0-2.54,0.35-2.54,1.19
				v23.38c0,2.05,1.03,3.14,2.97,3.14h0.59c1.92,0,2.97-1.11,2.97-3.14v-9.14c0-4.35,0.92-9.53,5.31-9.53
				c1.14,0,2.07,0.32,2.88,0.96l0.21,0.18h0.24c0.63,0,2.18-1.18,2.18-3.36C266.49,101.79,264.62,100.23,261.62,100.23z"/>
			<path class="st0" d="M280.19,100.23c-7.93,0-13.91,6.19-13.91,14.4c0,8.48,5.76,14.18,14.34,14.18c7.24,0,11.69-3.78,11.69-6.49
				c0-2.48-2.59-3.26-3.33-3.26l-0.33,0.01l-0.17,0.18l-0.09,0.12c-1.6,2.75-4.04,4.03-7.66,4.03c-4.38,0-7.61-2.74-8.22-6.88h18.56
				c1.53,0,2.22-0.67,2.22-2.16v-0.44C293.28,105.74,288.02,100.23,280.19,100.23z M272.61,111.71c0.84-3.76,3.79-6.23,7.52-6.23
				c3.73,0,6.26,2.37,6.72,6.23H272.61z"/>
			<path class="st0" d="M215.94,100.23c-3.29,0-6.17,1.3-8.26,3.69c-0.57-2.69-2.3-3.31-3.76-3.31c-0.88,0-2.54,0.35-2.54,1.19
				v23.38c0,2.05,1.03,3.14,2.97,3.14h0.59c1.92,0,2.97-1.11,2.97-3.14v-14.96c1.3-2.61,3.74-4.09,6.72-4.09
				c3.44,0,5.42,2.37,5.42,6.5v12.55c0,2.05,1.03,3.14,2.97,3.14h0.6c1.92,0,2.97-1.11,2.97-3.14v-13.2
				C226.6,104.63,222.61,100.23,215.94,100.23z"/>
			<path class="st0" d="M166.51,116.41c-0.51,0-0.7,0.27-0.76,0.44c-1.37,3.54-5.03,5.74-9.57,5.74c-6.72,0-11.59-5.31-11.59-12.62
				c0-7.4,4.72-12.56,11.48-12.56c4,0,7.6,1.96,9.38,5.08c0.07,0.14,0.25,0.37,0.69,0.37c1.05,0,3.68-1.09,3.68-3.66
				c0-2.79-4.74-8-13.8-8c-10.83,0-18.4,7.77-18.4,18.88c0,11.03,7.5,18.73,18.23,18.73c9.52,0,14.5-5.71,14.5-8.77
				C170.36,117.46,167.64,116.41,166.51,116.41z"/>
			<path class="st0" d="M185.57,100.23c-7.93,0-13.91,6.19-13.91,14.4c0,8.48,5.76,14.18,14.34,14.18c7.24,0,11.69-3.78,11.69-6.49
				c0-1.09-0.51-1.99-1.46-2.61c-0.73-0.47-1.53-0.65-1.86-0.65l-0.32,0.01l-0.17,0.18l-0.1,0.12c-1.6,2.75-4.03,4.03-7.66,4.03
				c-4.39,0-7.62-2.74-8.22-6.88h18.56c1.53,0,2.21-0.67,2.21-2.16v-0.44C198.67,105.74,193.4,100.23,185.57,100.23z M178,111.71
				c0.84-3.76,3.79-6.23,7.52-6.23c3.72,0,6.25,2.37,6.72,6.23H178z"/>
		</g>
	</g>
	<g>
		<path class="st1" d="M56.61,85.73L44.47,97.87v7.11c0,6.7,5.44,12.13,12.15,12.13c6.7,0,12.14-5.44,12.14-12.13v-7.1L56.61,85.73
			 M56.61,20.03c-6.71,0-12.15,5.43-12.15,12.14v7.09l12.14,12.14l12.14-12.14v-7.09C68.75,25.47,63.31,20.03,56.61,20.03"/>
		<path class="st2" d="M27.31,56.43h-7.1c-6.71,0-12.14,5.44-12.14,12.13c0,6.71,5.43,12.13,12.14,12.13h7.11l12.13-12.13
			L27.31,56.43 M93.02,56.43h-7.1L73.78,68.57L85.91,80.7h7.11c6.69,0,12.13-5.42,12.13-12.13C105.15,61.87,99.71,56.43,93.02,56.43
			"/>
		<path class="st3" d="M30.87,30.69c-3.1,0-6.21,1.19-8.58,3.56c-4.75,4.72-4.75,12.43,0,17.16l5.02,5.02h17.16V39.27l-5.02-5.02
			C37.08,31.88,33.98,30.69,30.87,30.69"/>
		<polyline class="st4" points="44.47,39.27 44.47,56.43 51.59,56.43 56.61,51.41 44.47,39.27 		"/>
		<path class="st3" d="M85.91,80.7H68.75v17.18l5.02,5.02c2.37,2.37,5.48,3.56,8.59,3.56s6.21-1.18,8.59-3.56
			c4.73-4.74,4.73-12.42,0-17.16L85.91,80.7"/>
		<polyline class="st4" points="68.75,80.7 61.65,80.7 56.61,85.73 68.75,97.87 68.75,80.7 		"/>
		<path class="st5" d="M73.78,68.57l-5.03,5.02v7.1h17.16L73.78,68.57 M44.47,56.43H27.31l12.14,12.14l5.02-5.02V56.43"/>
		<path class="st6" d="M68.75,73.59l-7.1,7.1h7.1V73.59 M51.59,56.43h-7.12v7.12L51.59,56.43"/>
		<path class="st7" d="M44.47,80.7H27.32l-5.03,5.03c-4.75,4.74-4.75,12.42,0,17.16c2.36,2.37,5.47,3.55,8.57,3.55
			s6.21-1.18,8.58-3.55l5.02-5.02V80.7 M82.36,30.69c-3.11,0-6.21,1.19-8.59,3.56l-5.02,5.02v17.16h17.17l5.02-5.02
			c4.73-4.74,4.73-12.44,0-17.16C88.57,31.88,85.46,30.69,82.36,30.69"/>
		<path class="st8" d="M51.58,80.7h-7.11v17.17l12.14-12.14L51.58,80.7 M68.75,39.27L56.61,51.41l5.02,5.02h7.12V39.27"/>
		<polyline class="st9" points="85.92,56.43 68.75,56.43 68.75,63.55 73.78,68.57 85.92,56.43 		"/>
		<polyline class="st10" points="68.75,56.43 61.63,56.43 68.75,63.55 68.75,56.43 		"/>
		<polyline class="st9" points="39.45,68.57 27.32,80.7 44.47,80.7 44.47,73.59 39.45,68.57 		"/>
		<polyline class="st10" points="44.47,73.59 44.47,80.7 51.58,80.7 44.47,73.59 		"/>
		<polyline class="st11" points="56.61,51.41 51.59,56.43 61.63,56.43 56.61,51.41 		"/>
		<polyline class="st11" points="61.65,80.7 51.58,80.7 56.61,85.73 61.65,80.7 		"/>
		<path class="st12" d="M44.47,63.55l-5.02,5.02l5.02,5.02V63.55 M68.75,63.55v10.05l5.03-5.02L68.75,63.55"/>
		<polyline class="st13" points="61.63,56.43 51.59,56.43 44.47,63.55 44.47,73.59 51.58,80.7 61.65,80.7 68.75,73.59 68.75,63.55 
			61.63,56.43 		"/>
	</g>
</g>
</svg>
